<?xml version="1.0" standalone="no"?>
<!DOCTYPE svg PUBLIC "-//W3C//DTD SVG 20010904//EN"
 "http://www.w3.org/TR/2001/REC-SVG-20010904/DTD/svg10.dtd">
<svg version="1.0" xmlns="http://www.w3.org/2000/svg"
 width="300.000000pt" height="141.000000pt" viewBox="0 0 300.000000 141.000000"
 preserveAspectRatio="xMidYMid meet">
<metadata>
Created by potrace 1.10, written by Peter Selinger 2001-2011
</metadata>
<g transform="translate(0.000000,141.000000) scale(0.100000,-0.100000)"
fill="#000000" stroke="none">
<path d="M993 1215 c-37 -45 -87 -116 -249 -358 -47 -70 -103 -148 -125 -173
-21 -25 -67 -82 -101 -127 -34 -45 -67 -87 -73 -93 -5 -6 -53 -62 -105 -123
-52 -62 -116 -126 -142 -142 -44 -29 -54 -49 -25 -49 44 0 209 172 360 373 37
50 81 104 98 121 16 16 51 61 77 100 26 39 50 76 54 81 4 6 42 63 85 127 43
64 79 116 80 114 1 -1 -26 -59 -61 -128 -56 -111 -121 -285 -131 -351 -2 -12
-11 -60 -20 -107 -16 -88 -10 -176 17 -234 14 -31 65 -59 102 -54 43 5 46 28
3 28 -68 0 -97 50 -97 169 0 171 96 446 259 739 72 129 69 176 -6 87z"/>
<path d="M1520 1221 c-56 -29 -192 -152 -225 -204 -14 -21 -15 -31 -6 -40 8
-8 15 -5 28 13 9 14 43 52 74 85 l57 59 61 -64 c34 -36 82 -96 108 -135 41
-60 48 -77 51 -131 5 -68 -24 -198 -60 -268 -11 -22 -22 -42 -23 -44 -2 -2
-46 13 -99 32 -58 22 -113 36 -141 36 -39 0 -50 -5 -83 -38 -60 -60 -68 -125
-22 -194 31 -47 79 -77 115 -74 57 5 170 87 222 160 l20 30 38 -23 c23 -13 63
-24 100 -28 60 -5 63 -4 101 29 21 19 59 40 84 48 25 7 51 18 58 23 16 13 16
-2 -3 -46 -18 -42 -11 -65 20 -73 25 -6 61 12 108 55 l27 25 0 -26 c0 -57 69
-75 146 -37 35 16 47 18 64 9 43 -23 172 12 145 39 -7 7 -23 6 -50 -4 -72 -26
-121 -12 -55 15 31 13 41 40 15 40 -9 0 -25 -9 -37 -20 -27 -25 -42 -26 -29
-2 15 28 41 47 120 88 51 27 76 35 79 26 2 -6 10 -12 18 -12 19 0 18 39 -2 47
-18 7 -110 -22 -134 -42 -8 -7 -30 -20 -47 -29 -37 -18 -66 -57 -68 -89 -2
-28 -59 -59 -100 -55 -28 3 -30 5 -29 45 1 31 11 56 39 97 22 32 35 61 32 70
-9 23 -22 20 -37 -9 -7 -14 -17 -25 -22 -25 -4 0 -8 -6 -8 -14 0 -32 -132
-166 -165 -166 -20 0 48 158 76 175 12 8 12 55 -1 55 -5 0 -23 -21 -41 -46
-21 -31 -46 -53 -76 -66 -25 -11 -47 -18 -49 -16 -2 3 6 24 18 49 56 116 64
245 21 361 -39 105 -87 185 -146 246 -96 97 -183 116 -287 63z m163 -15 c98
-34 229 -224 252 -364 16 -95 1 -210 -35 -282 -16 -32 -36 -60 -45 -63 -8 -4
-15 -13 -15 -21 0 -24 -50 -56 -87 -56 -19 0 -59 11 -88 25 l-54 24 25 51 c50
100 61 148 60 260 l-1 105 -43 61 c-23 34 -72 94 -108 133 -38 41 -62 75 -58
82 10 17 105 58 134 58 14 1 42 -5 63 -13z m-205 -712 c45 -15 82 -34 82 -41
0 -29 -118 -139 -162 -150 -70 -16 -77 -16 -107 14 -36 36 -47 85 -31 141 20
78 69 86 218 36z"/>
<path d="M2619 553 c-42 -32 -71 -64 -87 -96 -24 -46 -24 -48 -7 -67 10 -11
24 -20 32 -20 22 0 106 40 129 61 19 18 22 18 34 4 14 -17 62 -20 91 -4 32 16
12 29 -36 22 -26 -3 -45 -2 -45 4 0 5 20 23 44 40 54 38 84 79 68 95 -18 18
-65 -6 -100 -53 -17 -24 -40 -52 -50 -62 -23 -26 -131 -79 -142 -72 -35 22
116 165 174 165 16 0 26 6 26 15 0 10 -10 15 -34 15 -26 0 -51 -12 -97 -47z"/>
<path d="M629 505 c-3 -2 -25 -6 -50 -9 -32 -3 -45 -8 -48 -21 -3 -16 3 -17
48 -11 64 8 83 15 78 29 -4 12 -21 20 -28 12z"/>
<path d="M1090 205 c0 -8 9 -15 20 -15 11 0 20 7 20 15 0 8 -9 15 -20 15 -11
0 -20 -7 -20 -15z"/>
</g>
</svg>
